<svg width="118" height="34" viewBox="0 0 118 34" fill="none" xmlns="http://www.w3.org/2000/svg">
<rect width="118" height="34" fill="#0000"/>
<path d="M31.1035 0C31.4555 0 31.7596 0.127807 32.0156 0.383789C32.2716 0.63979 32.3994 0.943899 32.3994 1.2959V8.15918C32.3994 8.83118 32.1914 9.35916 31.7754 9.74316L16.7998 23.7598H32.1123C32.464 23.7599 32.7676 23.8878 33.0234 24.1436C33.2794 24.3996 33.4082 24.7037 33.4082 25.0557V32.3037C33.4082 32.6557 33.2794 32.9598 33.0234 33.2158C32.7676 33.4715 32.464 33.5995 32.1123 33.5996H1.2959C0.943931 33.5996 0.639774 33.4718 0.383789 33.2158C0.127814 32.9598 2.46297e-05 32.6557 0 32.3037V25.3916C9.78061e-07 24.9756 0.0802693 24.6239 0.240234 24.3359C0.400158 24.0481 0.559803 23.8399 0.719727 23.7119L15.8877 9.83984H2.30371C1.95182 9.83981 1.64755 9.71196 1.3916 9.45605C1.13568 9.20014 1.00789 8.8958 1.00781 8.54395V1.2959C1.00781 0.944 1.13575 0.639744 1.3916 0.383789C1.64757 0.127825 1.95177 3.60139e-05 2.30371 0H31.1035ZM64.2529 0C64.8609 0 65.3414 0.159492 65.6934 0.479492C66.0453 0.799477 66.2851 1.16802 66.4131 1.58398L76.877 32.2559L76.9248 32.5439C76.9247 32.8318 76.8128 33.0876 76.5889 33.3115C76.3969 33.5035 76.1571 33.5996 75.8691 33.5996H66.7969C65.773 33.5995 65.0527 33.0557 64.6367 31.9678L63.4375 28.6074H51.7256L50.5254 31.9678C50.1094 33.0557 49.3892 33.5996 48.3652 33.5996H39.293C39.0051 33.5996 38.7493 33.5034 38.5254 33.3115C38.3335 33.0876 38.2374 32.8318 38.2373 32.5439L38.2852 32.2559L48.749 1.58398C48.877 1.16804 49.1168 0.799464 49.4688 0.479492C49.8208 0.159492 50.3012 0 50.9092 0H64.2529ZM103.114 0C106.122 0 108.746 0.511216 110.986 1.53516C113.226 2.55916 114.938 3.95191 116.122 5.71191C117.306 7.47179 117.898 9.43941 117.898 11.6152C117.898 15.1992 116.778 18.0155 114.538 20.0635C112.298 22.0794 108.49 23.0879 103.114 23.0879H96.7783V32.3037C96.7783 32.6557 96.6505 32.9598 96.3945 33.2158C96.1385 33.4718 95.8344 33.5996 95.4824 33.5996H85.1621C84.8102 33.5995 84.5059 33.4718 84.25 33.2158C83.9941 32.9599 83.8662 32.6556 83.8662 32.3037V1.2959C83.8662 0.944023 83.9942 0.639733 84.25 0.383789C84.5059 0.127849 84.8102 6.07502e-05 85.1621 0H103.114ZM61.6914 5.8418C61.3706 5.5374 60.869 5.66404 60.6875 5.79297C57.7862 8.19495 52.1314 13.3947 51.8867 13.6699C51.5772 14.0158 51.6132 14.3068 51.7178 14.5479C51.7953 14.728 52.0628 14.9086 52.2207 14.9609L56.0703 16.2383L52.9404 22.9268C52.8974 23.0912 52.9173 23.4842 53.3223 23.7363C53.729 23.9877 54.1385 23.7703 54.292 23.6309L64.1172 15.0684C64.2552 14.9583 64.5673 14.648 64.4746 14.2529C64.438 14.1059 64.3637 13.9708 64.2578 13.8623C64.1519 13.7538 64.0183 13.6759 63.8721 13.6357L60.041 12.3652L61.9277 6.67285C62.0023 6.54184 62.0599 6.19114 61.6914 5.8418ZM96.8262 14.208H102.922C103.69 14.208 104.298 13.9832 104.746 13.5352C105.194 13.0553 105.418 12.4318 105.418 11.6641C105.418 10.8641 105.194 10.2073 104.746 9.69531C104.298 9.18351 103.69 8.92773 102.922 8.92773H96.8262V14.208Z" fill="#1E90FF"/>
</svg>
